<?xml version="1.0" encoding="UTF-8" standalone="no"?>
<svg
   xmlns:dc="http://purl.org/dc/elements/1.1/"
   xmlns:cc="http://creativecommons.org/ns#"
   xmlns:rdf="http://www.w3.org/1999/02/22-rdf-syntax-ns#"
   xmlns:svg="http://www.w3.org/2000/svg"
   xmlns="http://www.w3.org/2000/svg"
   xmlns:sodipodi="http://sodipodi.sourceforge.net/DTD/sodipodi-0.dtd"
   xmlns:inkscape="http://www.inkscape.org/namespaces/inkscape"
   enable-background="new 4 4 24 24"
   height="24"
   viewBox="4 4 24 24"
   width="24"
   version="1.1"
   id="svg921"
   sodipodi:docname="apply_expression_value.svg"
   inkscape:version="1.0.1 (3bc2e813f5, 2020-09-07)">
  <metadata
     id="metadata927">
    <rdf:RDF>
      <cc:Work
         rdf:about="">
        <dc:format>image/svg+xml</dc:format>
        <dc:type
           rdf:resource="http://purl.org/dc/dcmitype/StillImage" />
        <dc:title />
      </cc:Work>
    </rdf:RDF>
  </metadata>
  <defs
     id="defs925" />
  <sodipodi:namedview
     pagecolor="#ffffff"
     bordercolor="#666666"
     borderopacity="1"
     objecttolerance="10"
     gridtolerance="10"
     guidetolerance="10"
     inkscape:pageopacity="0"
     inkscape:pageshadow="2"
     inkscape:window-width="1920"
     inkscape:window-height="1027"
     id="namedview923"
     showgrid="false"
     inkscape:zoom="17.5625"
     inkscape:cx="7.7730903"
     inkscape:cy="15.544663"
     inkscape:window-x="-8"
     inkscape:window-y="1192"
     inkscape:window-maximized="1"
     inkscape:current-layer="svg921"
     inkscape:document-rotation="0" />
  <g
     style="display:inline;opacity:0.3"
     id="g5456"
     transform="matrix(1.2307692,0,0,1.2307692,4,-5.8461542)">
    <rect
       y="8"
       x="6.499999"
       height="6.499999"
       width="6.499999"
       id="rect6419"
       style="fill:#6e97c4;fill-opacity:1;fill-rule:nonzero;stroke:none" />
    <rect
       y="8"
       x="13.000001"
       height="6.499999"
       width="6.499999"
       id="rect6419-6"
       style="display:inline;fill:#253e5b;fill-opacity:1;fill-rule:nonzero;stroke:none" />
    <rect
       inkscape:transform-center-y="-4.3333322"
       inkscape:transform-center-x="-3.2499991"
       y="14.5"
       x="6.499999"
       height="6.499999"
       width="6.499999"
       id="rect6419-6-9"
       style="display:inline;fill:#253e5b;fill-opacity:1;fill-rule:nonzero;stroke:none" />
    <rect
       y="14.5"
       x="13.000001"
       height="6.499999"
       width="6.499999"
       id="rect6419-0"
       style="display:inline;fill:#6d97c4;fill-opacity:1;fill-rule:nonzero;stroke:none" />
    <rect
       y="8"
       x="0"
       height="6.499999"
       width="6.499999"
       id="rect6419-6-7"
       style="display:inline;fill:#253e5b;fill-opacity:1;fill-rule:nonzero;stroke:none" />
    <rect
       y="14.5"
       x="0"
       height="6.499999"
       width="6.499999"
       id="rect6419-3"
       style="display:inline;fill:#6d97c4;fill-opacity:1;fill-rule:nonzero;stroke:none" />
    <rect
       y="21.000002"
       x="6.499999"
       height="6.499999"
       width="6.499999"
       id="rect6419-5"
       style="display:inline;fill:#6d97c4;fill-opacity:1;fill-rule:nonzero;stroke:none" />
    <rect
       y="21.000002"
       x="0"
       height="6.499999"
       width="6.499999"
       id="rect6419-6-6"
       style="display:inline;fill:#253e5b;fill-opacity:1;fill-rule:nonzero;stroke:none" />
    <rect
       y="8"
       x="0"
       height="19.499998"
       width="19.499998"
       id="rect6554"
       style="fill:none;stroke:none" />
  </g>
  <g
     id="g857"
     transform="translate(21.955225,-0.12585822)">
    <path
       d="m -8.8579252,15.372958 c -2.1607838,-0.769256 -3.2432368,-1.934129 -3.2432368,-3.491872 0,-1.23081 0.571447,-2.2129853 1.711594,-2.949273 1.1525098,-0.7349141 2.5797548,-1.103058 4.2803598,-1.103058 1.54538,0 2.769321,0.2582502 3.681438,0.7733769 0.912118,0.5068846 1.368177,1.115421 1.368177,1.8297301 0,0.372265 -0.142862,0.701946 -0.428586,0.989044 -0.284349,0.274734 -0.614031,0.412101 -0.987669,0.412101 -0.614031,0 -1.120916,-0.428585 -1.516533,-1.285756 -0.545348,-1.185479 -1.366803,-1.7789049 -2.461619,-1.7789049 -0.865413,0 -1.581095,0.2857236 -2.141553,0.8557971 -0.560458,0.5714478 -0.840687,1.3681768 -0.840687,2.3901888 0,2.008307 1.039869,3.015208 3.115486,3.015208 0.218414,0 0.469796,-0.02198 0.754146,-0.06594 0.493148,-0.06456 0.875028,-0.09753 1.149762,-0.09753 0.666231,0 1.001407,0.192314 1.001407,0.575568 0,0.428586 -0.340671,0.641505 -1.019264,0.641505 -0.240393,0 -0.601668,-0.03846 -1.083827,-0.115389 -0.362649,-0.06594 -0.641504,-0.09753 -0.836566,-0.09753 -2.197873,0 -3.294063,1.115421 -3.294063,3.351757 0,1.086574 0.291218,1.965724 0.873655,2.636075 0.582436,0.657989 1.397023,0.989044 2.436892,0.989044 1.303614,0 2.16628,-0.675847 2.593492,-2.028913 0.219787,-0.712935 0.461553,-1.207457 0.723924,-1.482191 0.276108,-0.27336 0.638758,-0.412101 1.089322,-0.412101 0.372265,0 0.706067,0.138741 1.00277999,0.412101 0.309076,0.263745 0.461553,0.604415 0.461553,1.022012 0,1.000032 -0.56045799,1.828356 -1.67999999,2.489092 -1.120915,0.646999 -2.475355,0.971185 -4.063319,0.971185 -1.744563,0 -3.298185,-0.417596 -4.6581188,-1.251414 -1.350319,-0.835192 -2.026165,-1.950613 -2.026165,-3.34489 0.0028,-1.747309 1.347571,-3.026197 4.0372188,-3.849026"
       fill="#5c3566"
       id="path911"
       style="stroke-width:1.37367" />
    <g
       fill="#ffffff"
       id="g919"
       transform="matrix(1.3736712,0,0,1.3736712,-28.017891,-5.7225114)">
      <path
         d="m 12.954,11.868 c -1.483,1.602 -1.146,-0.264 -0.257,-0.906 0.921,-0.666 1.438,-0.649 1.431,-0.446 -0.008,0.238 -0.707,0.848 -1.174,1.352 z"
         opacity="0.5"
         id="path913" />
      <path
         d="m 12.456,17.028 c -1.485,1.601 -1.23,0.119 -0.34,-0.52 0.92,-0.663 1.437,-0.646 1.43,-0.443 -0.008,0.238 -0.626,0.462 -1.09,0.963 z"
         opacity="0.5"
         id="path915" />
      <path
         d="m 18.973,18.817 c -1.432,1.598 -1.322,0.08 -0.402,-0.509 0.702,-0.449 0.909,-0.06 0.402,0.509 z"
         opacity="0.5"
         id="path917" />
    </g>
  </g>
</svg>
