<?xml version="1.0" encoding="UTF-8" standalone="no"?>
<svg
   xmlns:dc="http://purl.org/dc/elements/1.1/"
   xmlns:cc="http://creativecommons.org/ns#"
   xmlns:rdf="http://www.w3.org/1999/02/22-rdf-syntax-ns#"
   xmlns:svg="http://www.w3.org/2000/svg"
   xmlns="http://www.w3.org/2000/svg"
   xmlns:sodipodi="http://sodipodi.sourceforge.net/DTD/sodipodi-0.dtd"
   xmlns:inkscape="http://www.inkscape.org/namespaces/inkscape"
   height="24"
   width="24"
   version="1.1"
   id="svg167"
   sodipodi:docname="clear_selection.svg"
   inkscape:version="1.0.1 (3bc2e813f5, 2020-09-07)">
  <metadata
     id="metadata173">
    <rdf:RDF>
      <cc:Work
         rdf:about="">
        <dc:format>image/svg+xml</dc:format>
        <dc:type
           rdf:resource="http://purl.org/dc/dcmitype/StillImage" />
        <dc:title></dc:title>
      </cc:Work>
    </rdf:RDF>
  </metadata>
  <defs
     id="defs171" />
  <sodipodi:namedview
     pagecolor="#ffffff"
     bordercolor="#666666"
     borderopacity="1"
     objecttolerance="10"
     gridtolerance="10"
     guidetolerance="10"
     inkscape:pageopacity="0"
     inkscape:pageshadow="2"
     inkscape:window-width="1920"
     inkscape:window-height="1027"
     id="namedview169"
     showgrid="false"
     inkscape:zoom="12.330175"
     inkscape:cx="21.811843"
     inkscape:cy="15.469921"
     inkscape:window-x="-8"
     inkscape:window-y="1192"
     inkscape:window-maximized="1"
     inkscape:current-layer="svg167"
     inkscape:document-rotation="0" />
  <g
     style="display:inline;opacity:0.3"
     id="g5456"
     transform="matrix(1.2307692,0,0,1.2307692,0,-9.8461542)">
    <rect
       y="8"
       x="6.499999"
       height="6.499999"
       width="6.499999"
       id="rect6419"
       style="fill:#6e97c4;fill-opacity:1;fill-rule:nonzero;stroke:none" />
    <rect
       y="8"
       x="13.000001"
       height="6.499999"
       width="6.499999"
       id="rect6419-6"
       style="display:inline;fill:#253e5b;fill-opacity:1;fill-rule:nonzero;stroke:none" />
    <rect
       inkscape:transform-center-y="-4.3333322"
       inkscape:transform-center-x="-3.2499991"
       y="14.5"
       x="6.499999"
       height="6.499999"
       width="6.499999"
       id="rect6419-6-9"
       style="display:inline;fill:#253e5b;fill-opacity:1;fill-rule:nonzero;stroke:none" />
    <rect
       y="14.5"
       x="13.000001"
       height="6.499999"
       width="6.499999"
       id="rect6419-0"
       style="display:inline;fill:#6d97c4;fill-opacity:1;fill-rule:nonzero;stroke:none" />
    <rect
       y="8"
       x="0"
       height="6.499999"
       width="6.499999"
       id="rect6419-6-7"
       style="display:inline;fill:#253e5b;fill-opacity:1;fill-rule:nonzero;stroke:none" />
    <rect
       y="14.5"
       x="0"
       height="6.499999"
       width="6.499999"
       id="rect6419-3"
       style="display:inline;fill:#6d97c4;fill-opacity:1;fill-rule:nonzero;stroke:none" />
    <rect
       y="21.000002"
       x="6.499999"
       height="6.499999"
       width="6.499999"
       id="rect6419-5"
       style="display:inline;fill:#6d97c4;fill-opacity:1;fill-rule:nonzero;stroke:none" />
    <rect
       y="21.000002"
       x="0"
       height="6.499999"
       width="6.499999"
       id="rect6419-6-6"
       style="display:inline;fill:#253e5b;fill-opacity:1;fill-rule:nonzero;stroke:none" />
    <rect
       y="8"
       x="0"
       height="19.499998"
       width="19.499998"
       id="rect6554"
       style="fill:none;stroke:none" />
  </g>
  <path
     d="m 0.465902,0.56891067 4.230014,10.85910033 0.733002,2.9484 0.08775,2.2286 16.16244,5.0508 -3.21986,-11.0485 4.04061,-9.72280033 -10.829921,4.01720003 z"
     fill="#e5e5e5"
     id="path155" />
  <path
     d="M 0.465901,0.56893323 4.695915,11.428073 5.516664,16.605105 21.679104,21.655867 18.459244,10.607324 22.499854,0.88460589 11.803861,4.9910765 Z"
     fill="none"
     stroke="#424242"
     stroke-dasharray="4, 1"
     id="path161" />
  <g
     id="g890">
    <path
       d="m 14.357,13.5 h 8.285 c 0.474,0 0.857,0.384 0.857,0.857 v 8.285 c 0,0.474 -0.384,0.857 -0.857,0.857 h -8.285 c -0.474,0 -0.857,-0.384 -0.857,-0.857 v -8.285 c 0,-0.473 0.384,-0.857 0.857,-0.857 z"
       fill="#cc0000"
       opacity="0.9"
       stroke="#cc0000"
       stroke-linecap="square"
       stroke-linejoin="round"
       id="path880" />
    <path
       d="m 13.5,18.5 h 10 v -3.334 c 0,-1.666 0,-1.666 -2.5,-1.666 -0.582,0 -5.061,0 -5.834,0 -1.666,0 -1.666,0 -1.666,1.666 z"
       fill="#fcffff"
       opacity="0.5"
       id="path882" />
    <g
       fill="none"
       stroke="#eeeeec"
       stroke-linecap="round"
       id="g888">
      <path
         d="m 16.373,20.65 4.254,-4.301"
         stroke-width="1.5"
         id="path884" />
      <circle
         cx="18.5"
         cy="18.5"
         r="4.15625"
         stroke-width="1.6875"
         id="circle886" />
    </g>
  </g>
</svg>
