<?xml version="1.0" encoding="UTF-8" standalone="no"?>
<!-- Created with Inkscape (http://www.inkscape.org/) -->

<svg
   xmlns:dc="http://purl.org/dc/elements/1.1/"
   xmlns:cc="http://creativecommons.org/ns#"
   xmlns:rdf="http://www.w3.org/1999/02/22-rdf-syntax-ns#"
   xmlns:svg="http://www.w3.org/2000/svg"
   xmlns="http://www.w3.org/2000/svg"
   xmlns:xlink="http://www.w3.org/1999/xlink"
   version="1.1"
   width="26.74383"
   height="28.389891"
   id="svg6034">
  <defs
     id="defs6036">
    <linearGradient
       x1="-30.512699"
       y1="-1.11146"
       x2="-16.435499"
       y2="-0.473952"
       id="linearGradient3352"
       xlink:href="#linearGradient700-3"
       gradientUnits="userSpaceOnUse"
       gradientTransform="matrix(-0.42698,-0.87201,0.87201,-0.42698,11.5331,-7.26288)" />
    <linearGradient
       id="linearGradient700-3">
      <stop
         id="stop347-3"
         style="stop-color:#376796;stop-opacity:1"
         offset="0" />
      <stop
         id="stop348-41"
         style="stop-color:#b0dde2;stop-opacity:1"
         offset="1" />
    </linearGradient>
    <linearGradient
       id="linearGradient4798">
      <stop
         id="stop4802"
         style="stop-color:#ffffff;stop-opacity:1"
         offset="0" />
      <stop
         id="stop4800"
         style="stop-color:#5eba69;stop-opacity:1"
         offset="1" />
    </linearGradient>
    <radialGradient
       cx="-293.81201"
       cy="-2729.78"
       r="9.4159403"
       fx="-293.81201"
       fy="-2729.78"
       id="radialGradient7308"
       xlink:href="#linearGradient4798"
       gradientUnits="userSpaceOnUse"
       gradientTransform="matrix(1.20758,0.0165454,0.27747,1.03554,1573.42,3294.03)" />
    <radialGradient
       cx="-293.81201"
       cy="-2729.78"
       r="9.4159403"
       fx="-293.81201"
       fy="-2729.78"
       id="radialGradient3207"
       xlink:href="#linearGradient4798"
       gradientUnits="userSpaceOnUse"
       gradientTransform="matrix(1.20758,0.0165454,0.27747,1.03554,1400.0145,3362.6719)" />
    <linearGradient
       x1="-30.512699"
       y1="-1.11146"
       x2="-16.435499"
       y2="-0.473952"
       id="linearGradient3213"
       xlink:href="#linearGradient700-3"
       gradientUnits="userSpaceOnUse"
       gradientTransform="matrix(-0.33357813,-0.68125781,0.68125781,-0.33357813,287.45,505.21776)" />
  </defs>
  <metadata
     id="metadata6039">
    <rdf:RDF>
      <cc:Work
         rdf:about="">
        <dc:format>image/svg+xml</dc:format>
        <dc:type
           rdf:resource="http://purl.org/dc/dcmitype/StillImage" />
        <dc:title></dc:title>
      </cc:Work>
    </rdf:RDF>
  </metadata>
  <g
     transform="translate(-277.38395,-509.5032)"
     id="layer1">
    <path
       d="m 288.60094,529.99205 13.62516,-6.67157 c 0.75211,-0.36828 0.47547,-3.87187 -1.1818,-7.25633 -1.65719,-3.38449 -4.07047,-5.37458 -4.82258,-5.00631 l -13.62518,6.67154"
       id="path30990"
       style="fill:url(#linearGradient3213);fill-opacity:1;stroke:#000000;stroke-width:1;stroke-miterlimit:4;stroke-opacity:1;stroke-dasharray:none" />
    <path
       d="m 285.92046,518.00889 10.518,-5.119 c 1.234,0.647 1.542,1.015 2.233,2.513"
       id="path4825"
       style="fill:none;stroke:#ffffff;stroke-width:1px;stroke-linecap:round;stroke-linejoin:round;stroke-opacity:1" />
    <path
       d="m 290.42821,522.10197 c -1.48227,-13.58086 -5.464,-13.35538 -4.90441,-5.92849"
       id="path31979"
       style="fill:none;stroke:#000000;stroke-width:1;stroke-linecap:butt;stroke-linejoin:miter;stroke-opacity:1" />
    <path
       d="m 14.1875,14.875 a 1.3125,1.3125 0 1 1 -2.625,0 1.3125,1.3125 0 1 1 2.625,0 z"
       transform="matrix(0.8780625,0,0,0.8780625,279.09085,508.87216)"
       id="path31981"
       style="fill:#c8c8c8;fill-opacity:1;stroke:#2e3436;stroke-width:1.13887095;stroke-linejoin:round;stroke-miterlimit:4;stroke-opacity:1;stroke-dasharray:none" />
    <path
       d="m 282.87546,517.70389 c -0.068,0.008 -0.127,0.034 -0.187,0.063 -0.961,0.465 -0.457,3.569 1.156,6.937 0.988,2.063 2.18,3.737 3.156,4.626 -10e-4,0.01 0.001,0.02 0,0.031 -0.069,0.83 -0.759,1.709 -1.028,2.5 -10.092,0.32 -8.962,4.477 0.653,4.523 18.542,0.088 18.215,-4.476 2.844,-4.554 -0.273,-0.656 -0.558,-1.324 -0.781,-2 0.727,-0.738 0.168,-3.655 -1.344,-6.813 -1.512,-3.158 -3.442,-5.424 -4.469,-5.313 z"
       id="path22088"
       style="color:#000000;fill:url(#radialGradient3207);fill-opacity:1;fill-rule:nonzero;stroke:#000000;stroke-width:1.00000095;stroke-linecap:butt;stroke-linejoin:miter;stroke-miterlimit:4;stroke-opacity:1;stroke-dasharray:none;stroke-dashoffset:0;marker:none;visibility:visible;display:inline" />
  </g>
</svg>
