<?xml version="1.0" encoding="UTF-8" standalone="no"?>
<!-- Created with Inkscape (http://www.inkscape.org/) -->

<svg
   xmlns:dc="http://purl.org/dc/elements/1.1/"
   xmlns:cc="http://creativecommons.org/ns#"
   xmlns:rdf="http://www.w3.org/1999/02/22-rdf-syntax-ns#"
   xmlns:svg="http://www.w3.org/2000/svg"
   xmlns="http://www.w3.org/2000/svg"
   xmlns:sodipodi="http://sodipodi.sourceforge.net/DTD/sodipodi-0.dtd"
   xmlns:inkscape="http://www.inkscape.org/namespaces/inkscape"
   width="24"
   height="24"
   viewBox="0 0 24 24"
   id="svg2"
   version="1.1"
   inkscape:version="0.91 r"
   sodipodi:docname="undo.svg">
  <defs
     id="defs4" />
  <sodipodi:namedview
     id="base"
     pagecolor="#ffffff"
     bordercolor="#666666"
     borderopacity="1.0"
     inkscape:pageopacity="0.0"
     inkscape:pageshadow="2"
     inkscape:zoom="16.000001"
     inkscape:cx="-5.6819453"
     inkscape:cy="5.0841262"
     inkscape:document-units="px"
     inkscape:current-layer="layer1"
     showgrid="true"
     units="px"
     inkscape:window-width="1920"
     inkscape:window-height="1173"
     inkscape:window-x="0"
     inkscape:window-y="0"
     inkscape:window-maximized="1"
     inkscape:snap-grids="false">
    <inkscape:grid
       type="xygrid"
       id="grid4147" />
  </sodipodi:namedview>
  <metadata
     id="metadata7">
    <rdf:RDF>
      <cc:Work
         rdf:about="">
        <dc:format>image/svg+xml</dc:format>
        <dc:type
           rdf:resource="http://purl.org/dc/dcmitype/StillImage" />
        <dc:title />
      </cc:Work>
    </rdf:RDF>
  </metadata>
  <g
     inkscape:label="Layer 1"
     inkscape:groupmode="layer"
     id="layer1"
     transform="translate(0,-1028.3622)">
    <g
       style="display:inline;opacity:0.3"
       id="g5456"
       transform="matrix(1.2307692,0,0,1.2307692,0,1018.516)">
      <rect
         y="8"
         x="6.499999"
         height="6.499999"
         width="6.499999"
         id="rect6419"
         style="fill:#6e97c4;fill-opacity:1;fill-rule:nonzero;stroke:none" />
      <rect
         y="8"
         x="13.000001"
         height="6.499999"
         width="6.499999"
         id="rect6419-6"
         style="display:inline;fill:#253e5b;fill-opacity:1;fill-rule:nonzero;stroke:none" />
      <rect
         inkscape:transform-center-y="-4.3333322"
         inkscape:transform-center-x="-3.2499991"
         y="14.5"
         x="6.499999"
         height="6.499999"
         width="6.499999"
         id="rect6419-6-9"
         style="display:inline;fill:#253e5b;fill-opacity:1;fill-rule:nonzero;stroke:none" />
      <rect
         y="14.5"
         x="13.000001"
         height="6.499999"
         width="6.499999"
         id="rect6419-0"
         style="display:inline;fill:#6d97c4;fill-opacity:1;fill-rule:nonzero;stroke:none" />
      <rect
         y="8"
         x="0"
         height="6.499999"
         width="6.499999"
         id="rect6419-6-7"
         style="display:inline;fill:#253e5b;fill-opacity:1;fill-rule:nonzero;stroke:none" />
      <rect
         y="14.5"
         x="0"
         height="6.499999"
         width="6.499999"
         id="rect6419-3"
         style="display:inline;fill:#6d97c4;fill-opacity:1;fill-rule:nonzero;stroke:none" />
      <rect
         y="21.000002"
         x="6.499999"
         height="6.499999"
         width="6.499999"
         id="rect6419-5"
         style="display:inline;fill:#6d97c4;fill-opacity:1;fill-rule:nonzero;stroke:none" />
      <rect
         y="21.000002"
         x="0"
         height="6.499999"
         width="6.499999"
         id="rect6419-6-6"
         style="display:inline;fill:#253e5b;fill-opacity:1;fill-rule:nonzero;stroke:none" />
      <rect
         y="8"
         x="0"
         height="19.499998"
         width="19.499998"
         id="rect6554"
         style="fill:none;stroke:none" />
    </g>
    <path
       style="fill:none;fill-opacity:1;fill-rule:evenodd;stroke:#ffffff;stroke-width:3;stroke-linecap:butt;stroke-linejoin:round;stroke-miterlimit:4;stroke-dasharray:none;stroke-opacity:1"
       d="m 9.7449127,1032.5958 -5.412158,6.7424 5.412158,6.7424 0,-4.495 4.5101313,0 c 2.429602,2.3434 0.875801,4.495 -1.804053,4.495 l 0,1.798 c 3.073953,0 7.216211,-1.1828 7.216211,-6.7424 0,-1.8917 -1.556413,-4.0455 -5.412158,-4.0455 l -4.5101313,0 z"
       id="path4168-4-5"
       inkscape:connector-curvature="0"
       sodipodi:nodetypes="ccccccccccc" />
    <g
       id="g4143"
       transform="matrix(0.90202632,0,0,0.89898773,1.2162869,105.07583)">
      <path
         sodipodi:nodetypes="ccccccccccc"
         inkscape:connector-curvature="0"
         id="path4168"
         d="m 9.499986,1031.8622 -6,7.5 6,7.5 0,-5 5,0 c 2.693494,2.6067 0.970927,5 -2,5 l 0,2 c 3.407831,0 8,-1.3157 8,-7.5 0,-2.1042 -1.725463,-4.5 -6,-4.5 l -5,0 z"
         style="fill:#e37e39;fill-opacity:1;fill-rule:evenodd;stroke:#bc9377;stroke-width:0.82786256px;stroke-linecap:butt;stroke-linejoin:round;stroke-opacity:0" />
      <path
         sodipodi:nodetypes="ccccccccccccccccc"
         inkscape:connector-curvature="0"
         id="path4168-3"
         d="m 3.64389,1039.4245 5.3554685,7.2774 0,-2.25 -4.9999998,-6.25 z m 6.3554747,1.2774 0,1 4.0000003,0 c 1.349775,1.3063 1.588697,2.5576 1.11914,3.4824 1.462016,-0.8405 1.822867,-2.603 -0.11914,-4.4824 z m 8.5410153,5.3593 c -1.610492,1.2625 -3.738184,1.6407 -5.541015,1.6407 l 0,-1.1016 c -0.312828,0.064 -0.646484,0.1016 -1,0.1016 l 0,2 c 2.210076,0 4.910324,-0.5648 6.541015,-2.6407 z"
         style="fill:#f2c990;fill-opacity:1;fill-rule:evenodd;stroke:#bc0077;stroke-width:0.82786256px;stroke-linecap:butt;stroke-linejoin:round;stroke-opacity:0" />
      <path
         sodipodi:nodetypes="ccccccccccc"
         inkscape:connector-curvature="0"
         id="path4168-4"
         d="m 9.499986,1031.8622 -6,7.5 6,7.5 0,-5 5,0 c 2.693494,2.6067 0.970927,5 -2,5 l 0,2 c 3.407831,0 8,-1.3157 8,-7.5 0,-2.1042 -1.725463,-4.5 -6,-4.5 l -5,0 z"
         style="fill:none;fill-opacity:1;fill-rule:evenodd;stroke:#d06935;stroke-width:0.82786256px;stroke-linecap:butt;stroke-linejoin:round;stroke-opacity:1" />
    </g>
  </g>
</svg>
