<?xml version="1.0" encoding="UTF-8" standalone="no"?>
<!-- Created with Inkscape (http://www.inkscape.org/) -->

<svg
   xmlns:dc="http://purl.org/dc/elements/1.1/"
   xmlns:cc="http://creativecommons.org/ns#"
   xmlns:rdf="http://www.w3.org/1999/02/22-rdf-syntax-ns#"
   xmlns:svg="http://www.w3.org/2000/svg"
   xmlns="http://www.w3.org/2000/svg"
   xmlns:sodipodi="http://sodipodi.sourceforge.net/DTD/sodipodi-0.dtd"
   xmlns:inkscape="http://www.inkscape.org/namespaces/inkscape"
   width="24"
   height="24"
   viewBox="0 0 24 24"
   id="svg2"
   version="1.1"
   inkscape:version="0.91 r"
   sodipodi:docname="redo.svg">
  <defs
     id="defs4" />
  <sodipodi:namedview
     id="base"
     pagecolor="#ffffff"
     bordercolor="#666666"
     borderopacity="1.0"
     inkscape:pageopacity="0.0"
     inkscape:pageshadow="2"
     inkscape:zoom="14.730243"
     inkscape:cx="-3.3368612"
     inkscape:cy="0.92600131"
     inkscape:document-units="px"
     inkscape:current-layer="layer1"
     showgrid="true"
     units="px"
     inkscape:window-width="1920"
     inkscape:window-height="1173"
     inkscape:window-x="0"
     inkscape:window-y="0"
     inkscape:window-maximized="1"
     inkscape:snap-grids="false">
    <inkscape:grid
       type="xygrid"
       id="grid4147" />
  </sodipodi:namedview>
  <metadata
     id="metadata7">
    <rdf:RDF>
      <cc:Work
         rdf:about="">
        <dc:format>image/svg+xml</dc:format>
        <dc:type
           rdf:resource="http://purl.org/dc/dcmitype/StillImage" />
        <dc:title />
      </cc:Work>
    </rdf:RDF>
  </metadata>
  <g
     inkscape:label="Layer 1"
     inkscape:groupmode="layer"
     id="layer1"
     transform="translate(0,-1028.3622)">
    <g
       style="display:inline;opacity:0.3"
       id="g5456"
       transform="matrix(1.2307692,0,0,1.2307692,0,1018.516)">
      <rect
         y="8"
         x="6.499999"
         height="6.499999"
         width="6.499999"
         id="rect6419"
         style="fill:#6e97c4;fill-opacity:1;fill-rule:nonzero;stroke:none" />
      <rect
         y="8"
         x="13.000001"
         height="6.499999"
         width="6.499999"
         id="rect6419-6"
         style="display:inline;fill:#253e5b;fill-opacity:1;fill-rule:nonzero;stroke:none" />
      <rect
         inkscape:transform-center-y="-4.3333322"
         inkscape:transform-center-x="-3.2499991"
         y="14.5"
         x="6.499999"
         height="6.499999"
         width="6.499999"
         id="rect6419-6-9"
         style="display:inline;fill:#253e5b;fill-opacity:1;fill-rule:nonzero;stroke:none" />
      <rect
         y="14.5"
         x="13.000001"
         height="6.499999"
         width="6.499999"
         id="rect6419-0"
         style="display:inline;fill:#6d97c4;fill-opacity:1;fill-rule:nonzero;stroke:none" />
      <rect
         y="8"
         x="0"
         height="6.499999"
         width="6.499999"
         id="rect6419-6-7"
         style="display:inline;fill:#253e5b;fill-opacity:1;fill-rule:nonzero;stroke:none" />
      <rect
         y="14.5"
         x="0"
         height="6.499999"
         width="6.499999"
         id="rect6419-3"
         style="display:inline;fill:#6d97c4;fill-opacity:1;fill-rule:nonzero;stroke:none" />
      <rect
         y="21.000002"
         x="6.499999"
         height="6.499999"
         width="6.499999"
         id="rect6419-5"
         style="display:inline;fill:#6d97c4;fill-opacity:1;fill-rule:nonzero;stroke:none" />
      <rect
         y="21.000002"
         x="0"
         height="6.499999"
         width="6.499999"
         id="rect6419-6-6"
         style="display:inline;fill:#253e5b;fill-opacity:1;fill-rule:nonzero;stroke:none" />
      <rect
         y="8"
         x="0"
         height="19.499998"
         width="19.499998"
         id="rect6554"
         style="fill:none;stroke:none" />
    </g>
    <path
       style="fill:none;fill-opacity:1;fill-rule:evenodd;stroke:#ffffff;stroke-width:3;stroke-linecap:butt;stroke-linejoin:round;stroke-miterlimit:4;stroke-dasharray:none;stroke-opacity:1"
       d="m 14.255086,1032.7206 5.412158,6.7424 -5.412158,6.7424 0,-4.495 -4.5101307,0 c -2.4296019,2.3434 -0.875801,4.495 1.8040527,4.495 l 0,1.798 c -3.0739526,0 -7.2162106,-1.1828 -7.2162106,-6.7424 0,-1.8917 1.556413,-4.0455 5.4121579,-4.0455 l 4.5101307,0 z"
       id="path4168-4-5"
       inkscape:connector-curvature="0"
       sodipodi:nodetypes="ccccccccccc" />
    <g
       id="g4143"
       transform="matrix(0.89496656,0,0,0.89278684,1.2616299,111.55878)">
      <path
         sodipodi:nodetypes="ccccccccccc"
         inkscape:connector-curvature="0"
         id="path4168"
         d="m 14.5,1031.8622 6,7.5 -6,7.5 0,-5 -5,0 c -2.693494,2.6067 -0.970927,5 2,5 l 0,2 c -3.407831,0 -8,-1.3157 -8,-7.5 0,-2.1042 1.725463,-4.5 6,-4.5 l 5,0 z"
         style="fill:#8cbe8c;fill-opacity:1;fill-rule:evenodd;stroke:#639563;stroke-width:0.8805086px;stroke-linecap:butt;stroke-linejoin:round;stroke-opacity:1" />
      <path
         sodipodi:nodetypes="ccsscsscccc"
         inkscape:connector-curvature="0"
         id="path4168-9"
         d="m 14.651785,1032.1278 0,5 -5.0000001,0 c -4.2745369,0 -5.9999999,2.3958 -5.9999999,4.5 0,2.9131 1.024922,4.7355 2.458984,5.8594 -0.883549,-1.125 -1.458984,-2.6861 -1.458984,-4.8594 0,-3.064 1.390642,-4.5 6,-4.5 l 4.35423,0 c 0.469378,0 0.64577,-0.2886 0.64577,-0.6368 l 0,-4.1132 z"
         style="fill:#afd5c1;fill-opacity:1;fill-rule:evenodd;stroke:none;stroke-width:1px;stroke-linecap:butt;stroke-linejoin:round;stroke-opacity:1" />
      <path
         sodipodi:nodetypes="ccccccccccc"
         inkscape:connector-curvature="0"
         id="path4168-4"
         d="m 14.5,1031.8622 6,7.5 -6,7.5 0,-5 -5,0 c -2.693494,2.6067 -0.970927,5 2,5 l 0,2 c -3.407831,0 -8,-1.3157 -8,-7.5 0,-2.1042 1.725463,-4.5 6,-4.5 l 5,0 z"
         style="fill:none;fill-opacity:1;fill-rule:evenodd;stroke:#639563;stroke-width:0.8805086px;stroke-linecap:butt;stroke-linejoin:round;stroke-opacity:1" />
    </g>
  </g>
</svg>
